<?xml version="1.0" standalone="no"?>
<!DOCTYPE svg PUBLIC "-//W3C//DTD SVG 20010904//EN"
 "http://www.w3.org/TR/2001/REC-SVG-20010904/DTD/svg10.dtd">
<svg version="1.0" xmlns="http://www.w3.org/2000/svg"
 width="100.000000pt" height="100.000000pt" viewBox="0 0 100.000000 100.000000"
 preserveAspectRatio="xMidYMid meet">

<g transform="translate(0.000000,100.000000) scale(0.100000,-0.100000)"
fill="#000000" stroke="none">
<path d="M601 926 c-9 -10 -22 -11 -61 -4 -95 17 -213 -29 -279 -109 -124
-150 -78 -379 93 -469 39 -20 56 -35 56 -49 1 -18 2 -18 13 -4 9 11 30 16 80
16 159 1 290 122 304 281 10 114 -48 233 -143 288 -35 20 -43 31 -39 45 7 22
-7 25 -24 5z m-51 -64 c0 -4 -43 -70 -96 -146 -52 -77 -91 -143 -87 -147 4 -4
34 -9 67 -11 l58 -3 -27 -29 c-21 -23 -26 -35 -21 -61 6 -28 -9 -95 -20 -95
-19 0 -87 45 -112 75 -45 50 -63 100 -63 171 0 142 109 251 254 253 26 1 47
-3 47 -7z m128 -66 c44 -39 75 -114 74 -181 0 -136 -93 -238 -231 -252 -54 -6
-55 -6 -41 13 8 10 29 33 47 50 18 18 33 40 33 50 0 11 22 53 50 94 27 41 48
75 46 77 -2 2 -27 7 -57 11 l-55 7 29 93 29 93 26 -17 c15 -9 38 -26 50 -38z"/>
<path d="M430 786 c0 -8 5 -18 10 -21 6 -3 10 1 10 9 0 8 -4 18 -10 21 -5 3
-10 -1 -10 -9z"/>
<path d="M370 768 c0 -9 5 -20 11 -23 17 -11 20 0 4 21 -13 17 -14 17 -15 2z"/>
<path d="M320 742 c0 -5 7 -15 15 -22 8 -7 15 -8 15 -2 0 5 -7 15 -15 22 -8 7
-15 8 -15 2z"/>
<path d="M295 700 c10 -11 20 -18 23 -15 7 6 -18 35 -31 35 -5 0 -2 -9 8 -20z"/>
<path d="M590 771 c-6 -12 -7 -21 -1 -21 10 0 24 30 17 37 -2 3 -9 -5 -16 -16z"/>
<path d="M646 744 c-9 -24 -7 -28 9 -14 17 14 20 30 6 30 -5 0 -12 -7 -15 -16z"/>
<path d="M680 715 c-19 -22 2 -44 25 -25 8 7 15 17 15 23 0 5 -10 2 -22 -9
-19 -16 -20 -16 -9 -1 17 22 9 33 -9 12z"/>
<path d="M70 221 c0 -5 7 -11 15 -14 10 -4 15 -25 17 -69 4 -80 23 -75 24 7 1
34 6 61 13 63 26 9 8 22 -29 22 -22 0 -40 -4 -40 -9z"/>
<path d="M160 155 c0 -60 3 -75 15 -75 10 0 15 10 15 30 0 40 18 38 22 -2 6
-60 23 -29 26 47 2 62 0 75 -13 75 -11 0 -15 -10 -15 -35 0 -19 -4 -35 -10
-35 -5 0 -10 16 -10 35 0 24 -5 35 -15 35 -12 0 -15 -15 -15 -75z"/>
<path d="M250 166 c0 -81 32 -120 68 -84 17 17 16 151 0 146 -8 -3 -14 -28
-16 -66 -4 -82 -22 -80 -22 3 0 51 -3 65 -15 65 -12 0 -15 -14 -15 -64z"/>
<path d="M342 153 c2 -46 7 -77 13 -75 6 2 9 21 8 43 -1 22 2 37 8 34 5 -4 9
-15 9 -26 0 -28 19 -61 31 -54 15 10 12 158 -3 152 -8 -2 -12 -18 -11 -38 2
-27 1 -30 -6 -14 -5 11 -12 28 -15 38 -3 9 -12 17 -21 17 -13 0 -15 -12 -13
-77z"/>
<path d="M437 158 c-7 -83 0 -96 40 -82 26 9 28 14 31 73 3 68 -4 81 -44 81
-19 0 -22 -7 -27 -72z m47 24 c-1 -7 -2 -28 -2 -47 -3 -55 -22 -41 -22 16 0
36 4 49 13 47 6 -3 12 -10 11 -16z"/>
<path d="M530 228 c-1 -2 -2 -37 -3 -78 l-2 -75 33 -3 c24 -2 32 1 32 12 0 9
-9 16 -20 16 -13 0 -20 7 -20 20 0 11 7 20 15 20 8 0 15 5 15 10 0 6 -7 10
-15 10 -8 0 -15 9 -15 20 0 13 7 20 20 20 11 0 20 7 20 15 0 10 -10 15 -30 15
-16 0 -30 -1 -30 -2z"/>
<path d="M607 211 c-9 -37 -2 -134 11 -138 8 -3 12 7 12 33 0 41 16 37 22 -5
1 -14 8 -26 15 -28 15 -5 16 126 1 145 -16 19 -55 15 -61 -7z m43 -31 c0 -11
-4 -20 -10 -20 -5 0 -10 9 -10 20 0 11 5 20 10 20 6 0 10 -9 10 -20z"/>
<path d="M694 216 c-3 -7 -4 -42 -2 -77 3 -66 19 -83 28 -29 3 17 9 30 15 30
5 -1 11 3 13 9 2 6 -3 11 -12 11 -9 0 -16 8 -16 20 0 13 7 20 20 20 11 0 20 7
20 15 0 19 -58 21 -66 1z"/>
<path d="M785 218 c-22 -62 -30 -148 -15 -148 6 0 10 7 10 15 0 8 6 15 14 15
8 0 16 -7 20 -15 3 -8 11 -15 17 -15 11 0 9 31 -8 128 -5 32 -29 44 -38 20z
m25 -85 c0 -7 -4 -13 -10 -13 -5 0 -10 12 -10 28 0 21 2 24 10 12 5 -8 10 -21
10 -27z"/>
<path d="M840 215 c0 -8 5 -15 10 -15 6 0 10 -29 10 -66 0 -48 3 -65 13 -62 7
3 13 28 15 66 2 34 7 62 12 62 6 0 10 7 10 15 0 10 -11 15 -35 15 -24 0 -35
-5 -35 -15z"/>
</g>
</svg>
